<?xml version="1.0" encoding="UTF-8"?>
<svg width="123px" height="30px" viewBox="0 0 123 30" version="1.1" xmlns="http://www.w3.org/2000/svg" xmlns:xlink="http://www.w3.org/1999/xlink">
    <!-- Generator: Sketch 50.2 (55047) - http://www.bohemiancoding.com/sketch -->
    <title>Group 17</title>
    <desc>Created with Sketch.</desc>
    <defs></defs>
    <g id="Page-1" stroke="none" stroke-width="1" fill="none" fill-rule="evenodd">
        <g id="Desktop-HD" transform="translate(-208.000000, -20.000000)" fill="#20201C">
            <g id="Group" transform="translate(208.000000, 20.000000)">
                <g id="Group-16">
                    <g id="Group-17">
                        <path d="M29.6120482,14 L14,14 L14,15.899628 L29.5952548,15.899628 C29.0408733,23.5774822 22.6362964,29.6341963 14.8170982,29.6341963 C6.63384082,29.6341963 0,23.0003555 0,14.8170982 C0,6.63384082 6.63384082,0 14.8170982,0 C22.7261865,0 29.1879413,6.19677148 29.6120482,14 Z" id="Combined-Shape"></path>
                        <path d="M48.0532227,17.0268555 C47.9370111,18.6333088 47.3439995,19.8979446 46.2741699,20.8208008 C45.2043404,21.743657 43.7944423,22.2050781 42.0444336,22.2050781 C40.1303615,22.2050781 38.6247613,21.5607975 37.5275879,20.2722168 C36.4304144,18.9836361 35.8818359,17.214855 35.8818359,14.9658203 L35.8818359,14.0532227 C35.8818359,12.6176686 36.1347631,11.3530328 36.640625,10.2592773 C37.1464869,9.16552187 37.8693801,8.32641894 38.8093262,7.74194336 C39.7492723,7.15746778 40.8413024,6.86523438 42.0854492,6.86523438 C43.8081141,6.86523438 45.1957955,7.32665554 46.2485352,8.24951172 C47.3012748,9.1723679 47.9096671,10.4677651 48.0737305,12.1357422 L44.9975586,12.1357422 C44.9223629,11.1718702 44.654055,10.4729026 44.192627,10.0388184 C43.7311989,9.60473416 43.0288133,9.38769531 42.0854492,9.38769531 C41.0600535,9.38769531 40.2927272,9.75512328 39.7834473,10.4899902 C39.2741674,11.2248572 39.0126954,12.3647384 38.9990234,13.909668 L38.9990234,15.0375977 C38.9990234,16.650887 39.2434058,17.8300744 39.7321777,18.5751953 C40.2209497,19.3203162 40.991694,19.6928711 42.0444336,19.6928711 C42.9946337,19.6928711 43.7038551,19.4758322 44.1721191,19.041748 C44.6403832,18.6076638 44.9086911,17.9360397 44.9770508,17.0268555 L48.0532227,17.0268555 Z M49.4169922,16.3500977 C49.4169922,15.2495062 49.6289041,14.268559 50.0527344,13.4072266 C50.4765646,12.5458941 51.0866659,11.8793969 51.8830566,11.4077148 C52.6794473,10.9360328 53.6039986,10.7001953 54.6567383,10.7001953 C56.1538161,10.7001953 57.3757277,11.1581985 58.3225098,12.0742188 C59.2692918,12.990239 59.7973627,14.2343671 59.9067383,15.8066406 L59.9272461,16.5654297 C59.9272461,18.2675866 59.4521532,19.6330515 58.5019531,20.6618652 C57.5517531,21.690679 56.2768635,22.2050781 54.6772461,22.2050781 C53.0776287,22.2050781 51.8010302,21.6923879 50.8474121,20.6669922 C49.8937941,19.6415964 49.4169922,18.2470791 49.4169922,16.4833984 L49.4169922,16.3500977 Z M52.3803711,16.5654297 C52.3803711,17.6181693 52.5786113,18.4230929 52.9750977,18.9802246 C53.371584,19.5373563 53.9389612,19.815918 54.6772461,19.815918 C55.3950231,19.815918 55.9555644,19.5407742 56.3588867,18.9904785 C56.762209,18.4401828 56.9638672,17.5600646 56.9638672,16.3500977 C56.9638672,15.3178659 56.762209,14.5180692 56.3588867,13.9506836 C55.9555644,13.3832979 55.3881873,13.0996094 54.6567383,13.0996094 C53.9321253,13.0996094 53.371584,13.381589 52.9750977,13.9455566 C52.5786113,14.5095243 52.3803711,15.3828066 52.3803711,16.5654297 Z M64.8798828,22 L61.90625,22 L61.90625,10.9052734 L64.8798828,10.9052734 L64.8798828,22 Z M61.7319336,8.03417969 C61.7319336,7.58984153 61.8806137,7.22412253 62.1779785,6.93701172 C62.4753433,6.64990091 62.8803685,6.50634766 63.3930664,6.50634766 C63.8989283,6.50634766 64.3022446,6.64990091 64.6030273,6.93701172 C64.9038101,7.22412253 65.0541992,7.58984153 65.0541992,8.03417969 C65.0541992,8.48535382 64.9021011,8.85449075 64.5979004,9.14160156 C64.2936997,9.42871237 63.8920923,9.57226562 63.3930664,9.57226562 C62.8940405,9.57226562 62.4924332,9.42871237 62.1882324,9.14160156 C61.8840317,8.85449075 61.7319336,8.48535382 61.7319336,8.03417969 Z M70.0478516,10.9052734 L70.1401367,12.1870117 C70.9331094,11.1957958 71.9960871,10.7001953 73.3291016,10.7001953 C74.5048887,10.7001953 75.3798799,11.0454067 75.9541016,11.7358398 C76.5283232,12.426273 76.8222656,13.4584892 76.8359375,14.8325195 L76.8359375,22 L73.8725586,22 L73.8725586,14.9042969 C73.8725586,14.2753875 73.7358412,13.8190932 73.4624023,13.5354004 C73.1889635,13.2517076 72.7343782,13.1098633 72.0986328,13.1098633 C71.2646443,13.1098633 70.6391622,13.4653285 70.222168,14.1762695 L70.222168,22 L67.2587891,22 L67.2587891,10.9052734 L70.0478516,10.9052734 Z M87.0180664,18.0830078 C87.0180664,17.5019502 86.8129903,17.0559098 86.402832,16.744873 C85.9926737,16.4338363 85.2543999,16.1057146 84.1879883,15.760498 C83.1215767,15.4152815 82.2773469,15.075197 81.6552734,14.7402344 C79.9599525,13.8242142 79.1123047,12.5903398 79.1123047,11.0385742 C79.1123047,10.2319296 79.3395973,9.51245433 79.7941895,8.88012695 C80.2487816,8.24779957 80.9016071,7.75390803 81.7526855,7.3984375 C82.603764,7.04296697 83.5590767,6.86523438 84.6186523,6.86523438 C85.6850639,6.86523438 86.6352497,7.05834768 87.4692383,7.44458008 C88.3032268,7.83081248 88.9509254,8.37597304 89.4123535,9.08007812 C89.8737816,9.78418321 90.1044922,10.5839799 90.1044922,11.4794922 L87.0283203,11.4794922 C87.0283203,10.795895 86.8129904,10.2644062 86.3823242,9.88500977 C85.951658,9.50561334 85.3466836,9.31591797 84.5673828,9.31591797 C83.8154259,9.31591797 83.2309591,9.47485193 82.8139648,9.79272461 C82.3969706,10.1105973 82.1884766,10.5292943 82.1884766,11.0488281 C82.1884766,11.5341821 82.4328589,11.9409163 82.9216309,12.269043 C83.4104028,12.5971696 84.1298781,12.9047837 85.0800781,13.1918945 C86.8300869,13.7182644 88.1049765,14.3710899 88.9047852,15.1503906 C89.7045938,15.9296914 90.1044922,16.9003848 90.1044922,18.0625 C90.1044922,19.3544986 89.6157275,20.3679162 88.6381836,21.1027832 C87.6606396,21.8376502 86.3447348,22.2050781 84.6904297,22.2050781 C83.5419864,22.2050781 82.4960985,21.9948751 81.5527344,21.5744629 C80.6093703,21.1540506 79.8898951,20.5781287 79.3942871,19.8466797 C78.8986792,19.1152307 78.6508789,18.2675829 78.6508789,17.3037109 L81.7373047,17.3037109 C81.7373047,18.9511801 82.7216698,19.7749023 84.6904297,19.7749023 C85.4218787,19.7749023 85.9926737,19.6262222 86.402832,19.3288574 C86.8129903,19.0314927 87.0180664,18.6162136 87.0180664,18.0830078 Z M94.8828125,12.1152344 C95.6689492,11.1718703 96.6567323,10.7001953 97.8461914,10.7001953 C100.252453,10.7001953 101.472656,12.0981306 101.506836,14.894043 L101.506836,22 L98.543457,22 L98.543457,14.9760742 C98.543457,14.3403289 98.4067396,13.8703628 98.1333008,13.5661621 C97.8598619,13.2619614 97.4052766,13.1098633 96.7695312,13.1098633 C95.9013628,13.1098633 95.2724629,13.4448209 94.8828125,14.1147461 L94.8828125,22 L91.9194336,22 L91.9194336,6.25 L94.8828125,6.25 L94.8828125,12.1152344 Z M106.869629,22 L103.895996,22 L103.895996,10.9052734 L106.869629,10.9052734 L106.869629,22 Z M103.72168,8.03417969 C103.72168,7.58984153 103.87036,7.22412253 104.167725,6.93701172 C104.465089,6.64990091 104.870115,6.50634766 105.382812,6.50634766 C105.888674,6.50634766 106.291991,6.64990091 106.592773,6.93701172 C106.893556,7.22412253 107.043945,7.58984153 107.043945,8.03417969 C107.043945,8.48535382 106.891847,8.85449075 106.587646,9.14160156 C106.283446,9.42871237 105.881838,9.57226562 105.382812,9.57226562 C104.883787,9.57226562 104.482179,9.42871237 104.177979,9.14160156 C103.873778,8.85449075 103.72168,8.48535382 103.72168,8.03417969 Z M110.120117,22 L110.120117,13.0791016 L108.469238,13.0791016 L108.469238,10.9052734 L110.120117,10.9052734 L110.120117,9.96191406 C110.120117,8.71776722 110.477291,7.7522007 111.19165,7.06518555 C111.906009,6.37817039 112.905755,6.03466797 114.190918,6.03466797 C114.601076,6.03466797 115.103513,6.10302666 115.698242,6.23974609 L115.66748,8.53662109 C115.421385,8.47509735 115.120607,8.44433594 114.765137,8.44433594 C113.650873,8.44433594 113.09375,8.96727993 113.09375,10.0131836 L113.09375,10.9052734 L115.29834,10.9052734 L115.29834,13.0791016 L113.09375,13.0791016 L113.09375,22 L110.120117,22 Z M120.384277,8.17773438 L120.384277,10.9052734 L122.28125,10.9052734 L122.28125,13.0791016 L120.384277,13.0791016 L120.384277,18.6162109 C120.384277,19.0263692 120.46289,19.3203116 120.620117,19.4980469 C120.777345,19.6757821 121.078123,19.7646484 121.522461,19.7646484 C121.850588,19.7646484 122.141112,19.7407229 122.394043,19.6928711 L122.394043,21.9384766 C121.812985,22.1162118 121.214847,22.2050781 120.599609,22.2050781 C118.521474,22.2050781 117.461914,21.1557722 117.420898,19.0571289 L117.420898,13.0791016 L115.800781,13.0791016 L115.800781,10.9052734 L117.420898,10.9052734 L117.420898,8.17773438 L120.384277,8.17773438 Z" id="CoinShift"></path>
                    </g>
                </g>
            </g>
        </g>
    </g>
</svg>