<?xml version="1.0" encoding="UTF-8"?>
<svg width="14px" height="8px" viewBox="0 0 14 8" version="1.1" xmlns="http://www.w3.org/2000/svg" xmlns:xlink="http://www.w3.org/1999/xlink">
    <!-- Generator: Sketch 50.2 (55047) - http://www.bohemiancoding.com/sketch -->
    <title>swap copy</title>
    <desc>Created with Sketch.</desc>
    <defs></defs>
    <g id="Page-1" stroke="none" stroke-width="1" fill="none" fill-rule="evenodd" opacity="0.970814732">
        <g id="Desktop-HD-Copy" transform="translate(-607.000000, -205.000000)" fill="#000000" fill-rule="nonzero">
            <g id="Group-6" transform="translate(585.000000, 202.000000)">
                <g id="swap-copy" transform="translate(28.500000, 7.000000) rotate(90.000000) translate(-28.500000, -7.000000) translate(25.000000, 0.000000)">
                    <path d="M3.55556653,2.40462937 L1.62199634,4.3784876 C1.28726169,4.72019681 0.744548851,4.72019756 0.409813291,4.37848927 C0.0750777324,4.03678097 0.0750769997,3.48276162 0.409811655,3.1410524 L2.94947337,0.548474068 C3.28420834,0.206764526 3.82692181,0.206764152 4.16165724,0.548473233 L6.70132581,3.14105157 C7.03606092,3.48276032 7.03606092,4.03677968 6.70132581,4.37848843 C6.36659071,4.72019719 5.82387787,4.72019719 5.48914276,4.37848843 L3.55556653,2.40462937 Z" id="Shape"></path>
                    <path d="M4.41266286,12.5735167 C4.41266286,13.0567658 4.02890693,13.4485167 3.55552,13.4485167 C3.08213307,13.4485167 2.69837714,13.0567658 2.69837714,12.5735167 L2.69837714,1.16622217 C2.69837714,0.682973011 3.08213307,0.291222167 3.55552,0.291222167 C4.02890693,0.291222167 4.41266286,0.682973011 4.41266286,1.16622217 L4.41266286,12.5735167 Z" id="Shape"></path>
                </g>
            </g>
        </g>
    </g>
</svg>