<?xml version="1.0" encoding="UTF-8"?>
<svg width="33px" height="33px" viewBox="0 0 33 33" version="1.1" xmlns="http://www.w3.org/2000/svg" xmlns:xlink="http://www.w3.org/1999/xlink">
    <!-- Generator: Sketch 50.2 (55047) - http://www.bohemiancoding.com/sketch -->
    <title>swap button</title>
    <desc>Created with Sketch.</desc>
    <defs></defs>
    <g id="Page-1" stroke="none" stroke-width="1" fill="none" fill-rule="evenodd">
        <g id="Desktop-HD" transform="translate(-706.000000, -191.000000)">
            <g id="Group-11" transform="translate(408.000000, 158.000000)">
                <g id="swap-button" transform="translate(298.000000, 33.000000)">
                    <g id="swap" opacity="0.970814732" transform="translate(9.000000, 10.000000)" fill="#AA44F5" fill-rule="nonzero">
                        <path d="M3.55556653,2.40462937 L1.62199634,4.3784876 C1.28726169,4.72019681 0.744548851,4.72019756 0.409813291,4.37848927 C0.0750777324,4.03678097 0.0750769997,3.48276162 0.409811655,3.1410524 L2.94947337,0.548474068 C3.28420834,0.206764526 3.82692181,0.206764152 4.16165724,0.548473233 L6.70132581,3.14105157 C7.03606092,3.48276032 7.03606092,4.03677968 6.70132581,4.37848843 C6.36659071,4.72019719 5.82387787,4.72019719 5.48914276,4.37848843 L3.55556653,2.40462937 Z" id="Shape"></path>
                        <path d="M4.41266286,12.5735167 C4.41266286,13.0567658 4.02890693,13.4485167 3.55552,13.4485167 C3.08213307,13.4485167 2.69837714,13.0567658 2.69837714,12.5735167 L2.69837714,1.16622217 C2.69837714,0.682973011 3.08213307,0.291222167 3.55552,0.291222167 C4.02890693,0.291222167 4.41266286,0.682973011 4.41266286,1.16622217 L4.41266286,12.5735167 Z" id="Shape"></path>
                        <path d="M14.3781357,9.62203796 C14.71287,9.28032843 15.2555829,9.28032719 15.5903187,9.62203517 C15.9250546,9.96374316 15.9250558,10.5177625 15.5903215,10.859472 L13.0506643,13.4520504 C12.7159316,13.7937583 12.1732219,13.7937614 11.8384854,13.4520573 L9.29877107,10.859479 C8.96403295,10.5177733 8.96402807,9.96375397 9.29876016,9.62204213 C9.63349226,9.2803303 10.1762051,9.28032532 10.5109432,9.622031 L12.4445646,11.5959006 L14.3781357,9.62203796 Z" id="Shape"></path>
                        <path d="M11.5873143,1.42599333 C11.5873143,0.942744177 11.9710702,0.550993333 12.4444571,0.550993333 C12.9178441,0.550993333 13.3016,0.942744177 13.3016,1.42599333 L13.3016,12.8333333 C13.3016,13.3165825 12.9178441,13.7083333 12.4444571,13.7083333 C11.9710702,13.7083333 11.5873143,13.3165825 11.5873143,12.8333333 L11.5873143,1.42599333 Z" id="Shape"></path>
                    </g>
                    <circle id="Oval-2" fill-opacity="0.158825861" fill="#80A3B5" cx="16.5" cy="16.5" r="16.5"></circle>
                </g>
            </g>
        </g>
    </g>
</svg>