<?xml version="1.0" encoding="UTF-8"?>
<svg width="23px" height="20px" viewBox="0 0 23 20" version="1.1" xmlns="http://www.w3.org/2000/svg" xmlns:xlink="http://www.w3.org/1999/xlink">
    <!-- Generator: Sketch 50.2 (55047) - http://www.bohemiancoding.com/sketch -->
    <title>Combined Shape</title>
    <desc>Created with Sketch.</desc>
    <defs></defs>
    <g id="Page-1" stroke="none" stroke-width="1" fill="none" fill-rule="evenodd">
        <g id="Desktop-HD-Copy" transform="translate(-699.000000, -892.000000)" fill="#FFFFFF">
            <path d="M721.957625,892.751802 L718.059257,911.503173 C717.967446,911.945894 717.4483,912.146508 717.082003,911.880336 L711.760378,908.016752 C711.437325,907.782156 710.996792,907.794626 710.687521,908.046797 L707.737019,910.451901 C707.394641,910.731929 706.878631,910.575872 706.747514,910.154153 L704.698788,903.565402 L699.40575,901.589965 C698.868082,901.388549 698.863487,900.629484 699.399624,900.422963 L721.122354,892.042908 C721.582869,891.864828 722.057968,892.268243 721.957625,892.751802 Z M716.762013,896.142692 L706.41746,902.513839 C706.020972,902.758498 705.83436,903.237317 705.962269,903.68558 L707.080703,907.615525 C707.160263,907.893948 707.564262,907.865508 707.602984,907.577823 L707.893659,905.422702 C707.948571,905.016953 708.142038,904.642926 708.442193,904.3637 L716.979326,896.427971 C717.139175,896.279935 716.947823,896.028566 716.762013,896.142692 Z" id="Combined-Shape"></path>
        </g>
    </g>
</svg>